<?xml version="1.0" encoding="UTF-8"?>
<svg id="Calque_1" data-name="Calque 1" xmlns="http://www.w3.org/2000/svg" viewBox="0 0 441.79 762.32">
  <defs>
    <style>
      .cls-1 {
        fill: #fff;
      }
    </style>
  </defs>
  <path class="cls-1" d="m280.69,74.18c18.74,11.69,27.41,33.73,36.15,52.96,10.71,23.55,20.85,47.3,27.96,72.22,6.89,24.14,11.84,48.84,19.88,72.65,1.96,5.81,4.11,11.55,6.5,17.2s5.36,11.48,6.84,17.64c1.32,5.51.83,11.53,3.88,16.52,2.57,4.23,6.75,7.04,10.12,10.55,8.11,8.46,5.27,20.53,7.62,31.02.54,2.42,1.43,4.8,3.79,5.97s5.09,1.09,7.55,1.68c5.42,1.29,10.53,3.68,15.01,6.98,2.2,1.62,4.2,3.48,6.03,5.5,1.08,1.19,2.85-.58,1.77-1.77-3.66-4.03-8.05-7.37-12.93-9.78-2.33-1.15-4.78-2.11-7.28-2.83-2.71-.78-5.61-.87-8.28-1.72-2.89-.92-3.26-4.3-3.67-6.9-.44-2.82-.58-5.67-.74-8.51-.3-5.22-.66-10.58-2.88-15.4s-6.25-7.83-9.92-11.32c-1.83-1.74-3.56-3.62-4.68-5.9-1.36-2.78-1.65-5.95-2.02-8.98-.72-5.99-2.57-11.44-4.97-16.96-2.54-5.85-5.05-11.69-7.23-17.7-8.59-23.62-13.67-48.3-20.26-72.5-3.36-12.32-7.22-24.48-11.77-36.41s-9.76-23.93-15.06-35.71c-4.75-10.55-9.33-21.25-14.85-31.42-5-9.21-11.04-18.12-19.18-24.84-1.93-1.59-3.96-3.06-6.08-4.38-1.37-.85-2.63,1.31-1.26,2.16h0Z"/>
  <path class="cls-1" d="m284.03,71.86c-17.47-10.75-38.71-11.51-58.64-11.47-19.2.04-39.93,1.48-56.34,12.52-8.11,5.46-14.46,13.01-19.77,21.13-6.02,9.2-11.04,19.07-15.82,28.95s-9.82,20.58-14.15,31.08c-2.01,4.87-3.6,9.93-3.8,15.23s.92,10.82,1.71,16.17c1.79,12.11-.8,23.62-2.77,35.53-1.86,11.23-2.63,22.63-2.24,34.01s2.22,22.45,4.42,33.61c1.1,5.56,1.9,11.46-.09,16.93-1.56,4.3-4.53,7.89-7.47,11.32-2.77,3.23-5.67,6.44-7.83,10.13-1.96,3.36-3.07,7.06-3.94,10.82-1.53,6.58-2.24,16.09-8.91,19.72-4.69,2.55-10.22.77-15.26,1.43-3.65.48-7.68,2.67-9.1,6.25-.64,1.63-.61,3.3.08,4.91s3.58,4.29,2.54,6.19c-.9,1.64-4.25,1.55-5.82,2.02-1.86.56-3.55,1.55-5.03,2.79-3.42,2.87-5.65,6.91-7.78,10.76-2.64,4.78-5.18,9.62-7.6,14.52-4.78,9.64-9.12,19.5-13.04,29.52-7.95,20.35-14.08,41.42-18.28,62.86-1.05,5.36-1.97,10.75-2.78,16.15-.24,1.57,2.17,2.25,2.41.66,6.44-42.86,20.47-84.51,41.45-122.45,2.2-3.99,4.53-8.43,8.43-11.02,1.8-1.2,3.71-1.54,5.78-2,1.53-.34,3.13-.84,4.12-2.13,3.02-3.92-2.55-6.78-2.46-10.5.05-2.2,2.03-3.92,3.81-4.88,2.5-1.35,5.21-1.35,7.98-1.27,4.37.13,8.89.36,12.7-2.18,2.7-1.8,4.48-4.51,5.7-7.47,2.89-6.99,2.87-14.9,6.24-21.72,3.84-7.79,11.27-13.08,15.21-20.81,4.82-9.48,1.49-19.71-.31-29.51-2.07-11.26-2.96-22.72-2.71-34.16.26-11.88,2.22-23.38,4.2-35.05.89-5.27,1.64-10.6,1.62-15.95s-1.11-10.9-1.88-16.34c-.83-5.88-.81-11.57.91-17.3,1.59-5.31,4.05-10.33,6.32-15.38,4.67-10.39,9.4-20.76,14.62-30.89,4.77-9.23,9.81-18.53,16.31-26.68s14.03-14.16,23.32-18.1,19.05-5.59,28.88-6.34,19.67-.74,29.47-.37c10.28.38,20.64,1.43,30.48,4.58,4.87,1.56,9.51,3.67,13.87,6.35,1.37.85,2.63-1.32,1.26-2.16h0Z"/>
  <path class="cls-1" d="m342.1,140.79c22.91,2.22,46,2.56,68.97.98,6.56-.45,13.11-1.06,19.64-1.82,1.56-.18,1.64-2.59,0-2.5-21.96,1.24-43.93,2.47-65.89,3.71-6.22.35-12.43.7-18.65,1.05l.33,2.46c16.92-5.66,34.96-5.56,52.55-4.18,5.09.4,10.16.9,15.24,1.41,1.6.16,1.58-2.33,0-2.5-18.3-1.96-36.73-2.73-55.13-2.27-5.26.13-10.51.36-15.76.69-1.59.1-1.62,2.47,0,2.5,17.94.33,35.89.66,53.83.99,5.15.09,10.3.19,15.45.28v-2.5c-18.97-.13-37.94-.26-56.91-.39-5.38-.04-10.77-.07-16.15-.11v2.5c12.15-.39,24.31-.79,36.46-1.18,1.6-.05,1.61-2.55,0-2.5-12.15.39-24.31.79-36.46,1.18-1.6.05-1.61,2.49,0,2.5,18.97.13,37.94.26,56.91.39,5.38.04,10.77.07,16.15.11,1.61.01,1.61-2.47,0-2.5-17.94-.33-35.89-.66-53.83-.99-5.15-.09-10.3-.19-15.45-.28v2.5c18.37-1.14,36.81-1.09,55.18.19,5.25.36,10.48.83,15.71,1.39v-2.5c-17.84-1.8-35.95-3.54-53.78-.71-4.98.79-9.89,1.97-14.67,3.57-1.27.43-1.15,2.54.33,2.46,21.96-1.24,43.93-2.47,65.89-3.71,6.22-.35,12.43-.7,18.65-1.05v-2.5c-22.87,2.66-45.94,3.43-68.94,2.29-6.57-.33-13.13-.81-19.67-1.45-1.6-.16-1.59,2.35,0,2.5h0Z"/>
  <path class="cls-1" d="m388.76,285.55c11.75-.02,23.51-.04,35.26-.06v-2.5c-10.5.82-21.06.19-31.38-1.93v2.41c8.73-2.14,17.83-2.6,26.74-1.29l.33-2.46c-10.25-.83-20.55-.97-30.82-.41-1.32.07-1.8,2.23-.33,2.46,12.43,1.87,24.96,2.89,37.53,3,1.61.01,1.61-2.49,0-2.5-12.34-.11-24.66-1.07-36.87-2.91l-.33,2.46c10.27-.56,20.56-.43,30.82.41,1.39.11,1.73-2.25.33-2.46-9.37-1.38-18.87-.97-28.06,1.29-1.16.29-1.22,2.16,0,2.41,10.53,2.16,21.32,2.86,32.04,2.02,1.58-.12,1.63-2.5,0-2.5-11.75.02-23.51.04-35.26.06-1.61,0-1.61,2.5,0,2.5h0Z"/>
  <path class="cls-1" d="m108.14,284.78c-21.79-.94-43.59-1.87-65.38-2.81-6.16-.26-12.31-.53-18.47-.79-1.65-.07-1.54,2.3,0,2.5,18.46,2.43,37.06,3.74,55.68,3.89,5.33.04,10.66-.01,15.99-.15,1.61-.04,1.61-2.5,0-2.5-22.67-.05-45.34-.9-67.94-2.57-6.44-.48-12.87-1.02-19.29-1.62-1.6-.15-1.59,2.35,0,2.5,22.57,2.12,45.21,3.45,67.88,3.96,6.45.14,12.9.22,19.36.23v-2.5c-18.61.5-37.25-.13-55.79-1.92-5.31-.51-10.6-1.12-15.89-1.81v2.5c21.79.94,43.59,1.87,65.38,2.81,6.16.26,12.31.53,18.47.79,1.61.07,1.61-2.43,0-2.5h0Z"/>
  <path class="cls-1" d="m44.13,142.39c21.5-.52,43-1.05,64.5-1.57l18.18-.44v-2.5c-28.1,1.91-56.3,2.26-84.44,1.04-7.94-.35-15.88-.82-23.81-1.41v2.5c17.52,1.3,35.05,2.34,52.6,3.11,4.97.22,9.93.41,14.9.59v-2.5c-16.57.16-33.14.32-49.71.49-1.61.02-1.61,2.47,0,2.5,14.58.28,29.16.56,43.75.84,1.61.03,1.61-2.47,0-2.5-14.58-.28-29.16-.56-43.75-.84v2.5c16.57-.16,33.14-.32,49.71-.49,1.61-.02,1.61-2.44,0-2.5-17.55-.62-35.1-1.5-52.62-2.65-4.96-.33-9.92-.67-14.88-1.04-1.61-.12-1.6,2.38,0,2.5,28.08,2.1,56.28,2.65,84.43,1.62,7.95-.29,15.89-.71,23.82-1.25,1.59-.11,1.62-2.54,0-2.5-21.5.52-43,1.05-64.5,1.57l-18.18.44c-1.61.04-1.61,2.54,0,2.5h0Z"/>
  <path class="cls-1" d="m35.64,127.15c-3.76-12.8-5.06-26.25-3.81-39.53.32-3.37.8-6.72,1.45-10.04.5-2.57,1.41-5.26.97-7.9-.18-1.06-.64-2.08-1.41-2.84-1.04-1.03-2.43-1.31-3.75-1.8-2.48-.9-3.76-3.3-4.85-5.54-1.31-2.68-2.45-5.32-4.83-7.24-2.19-1.77-4.96-2.59-7.55-1.18-1.41.77-.15,2.93,1.26,2.16,2.29-1.24,4.72.66,6.15,2.38,1.56,1.88,2.32,4.3,3.47,6.43,1.07,1.98,2.49,3.9,4.55,4.93,1.1.55,2.5.66,3.5,1.38s1.12,1.9,1.09,3.02c-.08,2.77-1.04,5.57-1.5,8.29-.51,3.02-.89,6.06-1.14,9.11-.51,6.19-.48,12.43.1,18.61.65,6.92,1.95,13.76,3.91,20.43.45,1.54,2.87.88,2.41-.66h0Z"/>
  <path class="cls-1" d="m39.62,72.15c2.14-3.76-.22-7.69-2.02-11.05-.9-1.68-1.96-3.53-2.03-5.48-.08-2.26,1.47-3.81,3.51-4.49,2.42-.81,5.02-.75,7.54-.76,3.41,0,6.87.08,10.19.94,5.35,1.38,10.37,5.17,10.74,11.06.1,1.62,0,3.25.12,4.87s.4,3.36.77,5c.71,3.26,1.67,6.45,2.28,9.73,1.25,6.78,1.49,13.71,1.39,20.59-.05,3.44-.2,6.87-.36,10.31-.13,2.79-.18,5.62-.74,8.37-.48,2.36-1.32,4.74-3.12,6.42-2.24,2.1-5.49,2.35-8.41,2.43-15.73.45-31.53-.14-47.21-1.36-1.63-.13-1.56,2.31,0,2.5,15.64,1.87,31.28,3.74,46.92,5.61v-2.5c-13.05,1.23-26.09,2.46-39.14,3.7-1.58.15-1.64,2.46,0,2.5,19.25.42,38.5.84,57.75,1.26l16.43.36c1.64.04,1.57-2.35,0-2.5-9.48-.92-18.97-1.84-28.45-2.76v2.5l34.31-.53c1.61-.02,1.61-2.52,0-2.5l-34.31.53c-1.64.03-1.58,2.35,0,2.5,9.48.92,18.97,1.84,28.45,2.76v-2.5c-19.25-.42-38.5-.84-57.75-1.26l-16.43-.36v2.5c13.05-1.23,26.09-2.46,39.14-3.7,1.62-.15,1.59-2.31,0-2.5-15.64-1.87-31.28-3.74-46.92-5.61v2.5c15.1,1.18,30.25,1.65,45.4,1.4,3.11-.05,6.36-.06,9.24-1.37,2.49-1.13,4.3-3.21,5.37-5.69s1.48-5.23,1.7-7.94c.27-3.41.37-6.85.49-10.27.26-7.32.25-14.68-.71-21.96-.47-3.59-1.23-7.09-2.13-10.59-.43-1.68-.86-3.37-1.16-5.09-.33-1.91-.36-3.8-.38-5.74-.03-3.09-.57-6-2.43-8.54-1.64-2.25-3.91-4.03-6.43-5.21-2.99-1.4-6.26-1.99-9.53-2.23s-6.47-.32-9.64,0c-2.63.26-5.53.91-7.35,2.99-1.69,1.92-1.96,4.49-1.27,6.89s2.11,4.58,3.24,6.82c.96,1.91,1.93,4.15.78,6.18-.8,1.4,1.36,2.66,2.16,1.26h0Z"/>
  <path class="cls-1" d="m74.53,74.6c4.98-1.36,7.6-6.62,7.47-11.51-.16-6.19-4.44-11.31-8.24-15.8l-.88,2.13c5.1-.13,10.2.1,15.26.73,4.65.58,9.54,1.3,13.95,2.96,1.88.71,3.71,1.74,5.02,3.3,1.44,1.73,2.02,4.01,2.28,6.2.57,4.91.48,9.96.67,14.89.4,10.59.79,21.18,1.14,31.77.08,2.5.18,5,.23,7.51.05,2.33.02,4.7-.62,6.96-1.08,3.76-4.08,6.27-7.71,7.48-9.79,3.28-19.95-1.84-29.89.3-1.57.34-.91,2.75.66,2.41,9.5-2.04,19.06,2.59,28.57.09,3.63-.95,7.07-2.89,9.17-6.08,2.7-4.11,2.37-9.26,2.23-13.95-.35-11.25-.76-22.5-1.18-33.75-.21-5.45-.25-10.94-.66-16.38-.34-4.53-1.66-8.72-5.59-11.36-4.36-2.93-10.27-3.68-15.33-4.45-6.02-.91-12.1-1.29-18.19-1.13-1.14.03-1.57,1.32-.88,2.13,3.21,3.8,7.03,8.18,7.47,13.38.34,3.95-1.47,8.63-5.6,9.76-1.55.42-.89,2.84.66,2.41h0Z"/>
  <path class="cls-1" d="m112.48,69.76c1.35,2.03,3.89,2.64,6.14,1.83,2.44-.88,3.82-3.26,3.75-5.82-.09-3.29-2.11-5.49-4.44-7.55-1.09-.96-2.25-1.98-2.64-3.44-.42-1.54.35-2.67,1.88-2.95,1.34-.25,2.74.02,4.07.22,2.11.32,4.22.64,6.33.96,3.66.55,7.34,1.04,10.99,1.67,3.14.54,6.93,1.55,8.33,4.78,1.16,2.68-.71,5.29-1.83,7.63-1.4,2.91-1.77,5.79,0,8.66,1.49,2.41,5.8,5.9,3.71,9.05-.89,1.34,1.27,2.6,2.16,1.26,1.81-2.72.46-6.06-1.33-8.41-1.88-2.47-4.08-4.69-2.93-8.01.91-2.62,2.76-4.83,3.05-7.66.31-2.99-1.41-5.65-3.79-7.32-3.01-2.11-6.88-2.43-10.4-2.96-3.89-.59-7.79-1.18-11.68-1.77-2.76-.42-6.22-1.4-8.85.02s-2.8,4.74-1.41,7.15c1.77,3.06,5.86,4.44,6.27,8.3.16,1.53-.4,3.14-1.89,3.77-1.1.46-2.6.39-3.31-.68-.88-1.34-3.05-.08-2.16,1.26h0Z"/>
  <path class="cls-1" d="m108.76,133.54h16c1.61,0,1.61-2.5,0-2.5h-16c-1.61,0-1.61,2.5,0,2.5h0Z"/>
  <path class="cls-1" d="m152.83,77.81c4.43.21,7.08-4.32,6.97-8.28-.07-2.63-.98-5.11-1.71-7.61s-1.34-5.18-.27-7.62c1.56-3.55,5.85-5.22,9.46-5.58,4.1-.41,8.36.44,12.07,2.21,4.35,2.08,8.02,5.34,10.46,9.5.81,1.39,2.98.13,2.16-1.26-4.43-7.55-12.68-12.54-21.42-13.01-4.05-.22-8.37.6-11.67,3.07-3.93,2.94-4.7,7.38-3.57,11.98.75,3.03,2.19,6.04,1.98,9.23-.16,2.38-1.84,4.98-4.46,4.86-1.61-.08-1.6,2.42,0,2.5h0Z"/>
  <path class="cls-1" d="m198.01,59.97c-.18-6.9,6.86-10.74,12.95-10.85,7.69-.13,14.71,3.67,22.01,5.51,1.56.39,2.23-2.02.66-2.41-8.2-2.07-16.17-6.5-24.87-5.45-6.72.81-13.44,5.85-13.25,13.19.04,1.61,2.54,1.61,2.5,0h0Z"/>
  <path class="cls-1" d="m239.22,57.74c-.79-1.73,1.01-3.35,2.44-3.92,1.79-.72,3.86-.88,5.76-1.1,4.36-.49,8.76-.6,13.14-.31,2.2.15,4.39.39,6.56.74,1.86.3,3.82.62,5.44,1.63,1.35.83,2.73,2.6,2.17,4.29-.41,1.25-1.95,1.92-3.03,1.13-1.3-.95-2.55,1.22-1.26,2.16,2.67,1.94,6.43-.31,6.84-3.33.54-3.94-2.99-6.68-6.39-7.64-4.35-1.24-9.18-1.52-13.68-1.61s-9.27.19-13.8,1.01c-2.13.38-4.33,1.13-5.69,2.91-1.2,1.58-1.5,3.5-.67,5.31.67,1.46,2.82.19,2.16-1.26h0Z"/>
  <path class="cls-1" d="m286.47,65.83c-3-2.57-7.85-7.35-4.11-11.32,1.47-1.56,3.56-2.44,5.48-3.32,2.45-1.13,4.92-2.22,7.52-2.97,4.37-1.26,9.22-1.33,13.07,1.41,1.66,1.18,2.9,2.87,3.38,4.87.63,2.65,0,5.43-.48,8.06-.82,4.46-1.29,9.98,2.58,13.23,1.22,1.03,3-.73,1.77-1.77-4.22-3.55-1.9-9.97-1.32-14.52.35-2.7.26-5.45-.99-7.93-.99-1.96-2.67-3.55-4.55-4.65-4.61-2.68-10.06-2.41-14.99-.84-2.76.88-5.41,2.1-8.03,3.32-2.06.96-4.19,2.07-5.65,3.87-4.19,5.16.55,10.91,4.56,14.33,1.22,1.04,2.99-.72,1.77-1.77h0Z"/>
  <path class="cls-1" d="m315.97,77.53c2.71.62,5.02-.9,6.35-3.2,1.66-2.88,1.41-5.92.73-9.05-.72-3.29-1.68-6.78.34-9.81,1.51-2.27,4.16-3.64,6.66-4.55,2.85-1.04,5.92-1.76,8.93-2.14,3.22-.41,6.82-.21,8.78,2.75.92,1.39,1.41,3.01,1.88,4.6.57,1.92,1.11,3.85,1.62,5.78,1.07,4.02,2.02,8.08,2.85,12.16,1.64,8.05,2.83,16.19,3.55,24.37.36,4.15.61,8.3.73,12.46.11,3.75.31,7.6-.03,11.35-.28,3.14-1.45,6.14-4.85,6.81-1.78.35-3.65.16-5.44.08-2.07-.09-4.15-.19-6.22-.28-4.11-.19-8.28-.18-12.37-.64-3.32-.37-6.39-1.62-8.35-4.43-3.78-5.39-3.82-13-4.42-19.3-.79-8.35-1.33-16.71-1.63-25.09-.07-2.14-.13-4.27-.18-6.41-.03-1.61-2.53-1.61-2.5,0,.18,8.96.64,17.91,1.39,26.83.36,4.31.74,8.63,1.29,12.92.41,3.2,1,6.38,2.28,9.36,1.18,2.76,3.04,5.26,5.68,6.77,3.42,1.96,7.52,1.97,11.35,2.15,4.48.2,8.96.41,13.44.61,3.49.16,7.46.51,10.21-2.1,2.32-2.21,2.81-5.64,2.92-8.69.15-4.18.02-8.39-.15-12.57-.37-8.75-1.27-17.48-2.67-26.12s-3.31-17.14-5.73-25.52c-.95-3.31-1.97-6.9-4.98-8.93-2.84-1.92-6.48-1.73-9.71-1.23-5.69.88-12.77,2.51-16.3,7.5-2.03,2.87-1.97,6.31-1.29,9.62s1.92,6.95-.29,10.03c-.76,1.06-1.85,1.82-3.19,1.52-1.57-.36-2.23,2.05-.66,2.41h0Z"/>
  <path class="cls-1" d="m352.57,75.77c3.91,1.03,7.85-.96,10.07-4.21,1.07-1.57,1.73-3.54,1.62-5.45-.14-2.51-1.69-4.36-2.5-6.65-.33-.94-.56-2.17-.04-3.09.62-1.09,2.13-1.15,3.23-1.29,2.92-.38,5.84-.73,8.77-1.1s5.67-.79,8.51-1.05c2.42-.22,4.9-.09,6.73,1.69,1.52,1.47,2.37,3.51,2.99,5.5.78,2.52,1.3,5.13,1.74,7.73.97,5.64,1.33,11.38,1.32,17.1-.02,11.47-1.47,22.94-3.09,34.28-.36,2.51-.9,5.29-3.62,6.18s-5.75.43-8.46.41c-6.8-.06-13.59-.12-20.39-.18-1.61-.01-1.61,2.49,0,2.5,6.3.06,12.6.11,18.9.17,2.86.03,5.82.26,8.67-.09,2.3-.29,4.4-1.2,5.72-3.19s1.55-4.75,1.88-7.16c.4-2.95.79-5.91,1.15-8.87.75-6.09,1.36-12.21,1.62-18.34s.16-12.02-.51-17.99c-.59-5.28-1.33-10.95-3.5-15.84-.87-1.96-2.13-3.79-3.93-5-2.12-1.43-4.73-1.61-7.21-1.38-6.05.55-12.12,1.45-18.14,2.26-2.67.36-4.86,1.59-5.13,4.5s1.92,5.2,2.64,7.98c1.19,4.59-3.88,9.38-8.37,8.19-1.56-.41-2.22,2-.66,2.41h0Z"/>
  <path class="cls-1" d="m395.1,71.35c3.13,1.33,6.74,1.1,9.49-1.02s3.98-5.46,3.47-8.77-3.01-6.31-2.95-9.8c.02-1.4.49-2.93,1.88-3.52,1.74-.74,4.03-.04,5.82.22,4.96.74,9.92,1.47,14.89,2.21,1.57.23,2.25-2.17.66-2.41-4.31-.64-8.62-1.28-12.93-1.92-3.22-.48-7.7-1.95-10.57.27-2.31,1.8-2.58,5.12-1.94,7.77.8,3.32,3.41,6.43,2.63,10.01-.89,4.07-5.31,6.44-9.18,4.8-1.46-.62-2.74,1.53-1.26,2.16h0Z"/>
  <path class="cls-1" d="m392.84,91.3c2.24,12.39,2.98,25.02,2.24,37.59-.04.73.61,1.17,1.25,1.25,11.35,1.4,22.87.85,34.05-1.57,1.57-.34.91-2.75-.66-2.41-10.96,2.37-22.25,2.86-33.38,1.48l1.25,1.25c.75-12.8-.05-25.64-2.33-38.26-.29-1.58-2.7-.91-2.41.66h0Z"/>
  <path class="cls-1" d="m433.49,132.56c-28.24,1.77-56.57,2.13-84.85,1.05-7.94-.3-15.87-.72-23.79-1.25v2.5c25.74-2.52,51.64-3.36,77.49-2.48,7.24.25,14.48.63,21.71,1.14,1.61.11,1.6-2.39,0-2.5-25.8-1.83-51.71-1.97-77.53-.39-7.23.44-14.46,1.02-21.67,1.73-1.59.16-1.63,2.39,0,2.5,28.24,1.88,56.56,2.34,84.84,1.36,7.94-.27,15.87-.66,23.8-1.16,1.6-.1,1.61-2.6,0-2.5h0Z"/>
  <path class="cls-1" d="m430.76,277.7l-14.44-.08.33,2.46c5.15-.84,10.3-1.68,15.45-2.53,1.39-.23,1.06-2.52-.33-2.46-19.88.97-39.76,1.95-59.64,2.92-1.11.05-1.86,1.81-.63,2.33,17.28,7.31,36.67,8.87,54.88,4.3,1.56-.39.9-2.8-.66-2.41-17.5,4.39-36.33,2.98-52.96-4.05l-.63,2.33c19.88-.97,39.76-1.95,59.64-2.92l-.33-2.46c-5.15.84-10.3,1.68-15.45,2.53-1.42.23-1.04,2.45.33,2.46l14.44.08c1.61,0,1.61-2.49,0-2.5h0Z"/>
  <path class="cls-1" d="m8.1,280.87c26.04,1.83,52.16,2.4,78.25,1.68,7.37-.2,14.74-.51,22.1-.92l-.33-2.46c-22.01,3.37-44.55,3.48-66.58.28-6.16-.89-12.28-2.05-18.34-3.44-1.57-.36-2.23,2.05-.66,2.41,22.04,5.07,44.81,6.87,67.38,5.29,6.32-.44,12.62-1.16,18.88-2.12,1.39-.21,1.07-2.53-.33-2.46-26.06,1.44-52.19,1.61-78.27.5-7.37-.32-14.73-.74-22.09-1.25-1.61-.11-1.6,2.39,0,2.5h0Z"/>
  <path class="cls-1" d="m90.67,276.61c-3.59-14.35-4.11-29.21-3.27-43.92.43-7.48,1.2-14.94,2.09-22.38.44-3.63.9-7.27,1.38-10.9.38-2.93.59-6.33,3.78-7.53s7.11-.48,10.3.12c4,.75,7.88,2.05,11.54,3.85,1.44.71,2.71-1.45,1.26-2.16-3.31-1.63-6.78-2.91-10.38-3.73-3.3-.76-6.88-1.37-10.28-1.09-2.9.24-5.82,1.33-7.24,4.05-.74,1.41-1.01,2.98-1.22,4.54-.26,1.91-.5,3.83-.75,5.75-2.03,15.83-3.83,31.8-3.22,47.79.34,8.86,1.44,17.69,3.59,26.3.39,1.56,2.8.9,2.41-.66h0Z"/>
  <path class="cls-1" d="m85.69,212.69c-2.24.88-3.99-.94-4.98-2.8-1.24-2.33-1.01-4.95-1.01-7.51s-.17-5.29-1.55-7.54c-1.18-1.93-3.03-3.2-5.13-3.96s-4.55-1.01-6.84-1.09c-2.5-.09-5.04-.11-7.54.15-4.83.51-9.48,2.33-12,6.73s-2.48,9.38-2.37,14.1c.16,6.6.37,13.2.55,19.8s.36,12.95.54,19.43c.09,3.32.18,6.64.28,9.97.07,2.65-.13,5.6.82,8.12,1.01,2.66,3.25,4.11,5.96,4.69,3.28.7,6.71.92,10.03,1.34,7.43.94,14.85,1.88,22.28,2.82,1.59.2,1.58-2.3,0-2.5-6.27-.79-12.54-1.59-18.81-2.38-3.05-.39-6.11-.77-9.16-1.16-2.29-.29-5.4-.33-7.08-2.17s-1.43-4.93-1.5-7.26c-.09-3.07-.17-6.15-.26-9.22-.17-6.23-.35-12.46-.52-18.68s-.35-12.46-.52-18.68c-.14-4.88-.64-10.1.96-14.81s5.67-7,10.41-7.58c2.38-.29,4.81-.27,7.2-.22,2.26.05,4.57.21,6.73.97,2.49.87,4.16,2.69,4.71,5.28.6,2.8.08,5.7.38,8.53.44,4.17,4.14,9.98,9.07,8.06,1.48-.58.84-3-.66-2.41h0Z"/>
  <path class="cls-1" d="m46.66,211.32c-2.02-.16-3.15-2.13-3.71-3.87-.67-2.09-.6-4.24-.77-6.4s-.48-4.38-1.66-6.2c-1.26-1.94-3.26-3.03-5.52-3.36-2.63-.39-5.36,0-7.99.19-3.1.22-6.2.43-9.3.66-2.39.18-4.6.68-6.06,2.74-1.23,1.74-1.59,3.94-1.78,6.02-.56,6.1-.76,12.25-1.13,18.36s-.76,12.56-1.14,18.84c-.35,5.84-.93,11.71-.94,17.56-.01,4.92.63,10.12,3.45,14.29,3.06,4.5,8.17,7.15,13.43,8.1,6.62,1.19,13.32-.11,19.82-1.4,1.58-.31.91-2.72-.66-2.41-9.52,1.89-21.76,4.04-29.21-4.02-3.28-3.55-4.2-8.46-4.32-13.13-.14-5.33.42-10.69.74-16,.71-11.74,1.42-23.47,2.14-35.21.15-2.43.1-4.98.71-7.35s1.87-3.59,4.31-3.82c2.82-.27,5.65-.41,8.47-.61,2.64-.19,5.33-.55,7.98-.44s4.7,1.21,5.55,3.76c.74,2.24.62,4.63.8,6.95.31,4.03,2.16,8.91,6.79,9.27,1.6.12,1.6-2.38,0-2.5h0Z"/>
  <path class="cls-1" d="m10.43,126.28c.32-19.04.64-38.08.96-57.12l.27-16.21c.03-1.61-2.47-1.61-2.5,0-.32,19.04-.64,38.08-.96,57.12l-.27,16.21c-.03,1.61,2.47,1.61,2.5,0h0Z"/>
  <path class="cls-1" d="m5.98,61.4c7.99-6.74,6.66-18.42,5.08-27.62-1.46-8.51-3.47-22.04,5.67-27.21,2.98-1.69,6.45-1.91,9.8-1.96,3.53-.06,7.06-.04,10.59-.06,7.39-.04,14.78-.08,22.17-.12,14.78-.08,29.56-.16,44.34-.23,29.56-.16,59.12-.31,88.67-.47s59.12-.31,88.67-.47,59.12-.31,88.67-.47c14.55-.08,29.14-.45,43.69-.2,6.21.1,12.8.87,17.68,5.1,3.7,3.2,5.82,7.69,6.96,12.37,2.68,10.95.78,22.59-.2,33.63-1.29,14.61-2.44,29.22-3.42,43.85-1.98,29.26-3.34,58.56-4.09,87.87-.75,29.32-.88,58.65-.41,87.97.48,29.32,1.57,58.63,3.28,87.91.42,7.18.87,14.35,1.36,21.52.11,1.6,2.61,1.61,2.5,0-2.04-29.83-3.45-59.7-4.22-89.59-.77-29.75-.9-59.51-.4-89.26.5-29.9,1.64-59.78,3.41-89.63.88-14.78,1.91-29.55,3.11-44.31.6-7.45,1.24-14.9,1.92-22.34.51-5.6,1.07-11.19.94-16.82-.21-9.25-2.14-19.65-9.86-25.67-4.69-3.65-10.52-4.78-16.33-5.04-7.17-.33-14.4-.03-21.58,0-29.99.16-59.99.32-89.98.48-30.14.16-60.28.32-90.41.48-29.99.16-59.99.32-89.98.48s-60.28.32-90.41.48c-5.96.03-12.92-.72-18.21,2.62-3.7,2.34-5.89,6.24-6.88,10.42-2.41,10.27,1.72,20.24,1.62,30.5-.05,5.3-1.34,10.48-5.53,14.02-1.23,1.04.54,2.8,1.77,1.77h0Z"/>
  <path class="cls-1" d="m433.82,382.29c-.06,49.03-.08,98.07-.06,147.1.02,48.78.09,97.56.2,146.35.06,27.52.14,55.04.23,82.55,0,1.61,2.51,1.61,2.5,0-.16-49.03-.27-98.06-.35-147.1s-.1-97.56-.09-146.35c0-27.52.03-55.04.06-82.55,0-1.61-2.5-1.61-2.5,0h0Z"/>
  <path class="cls-1" d="m436.09,759.82c-55.81-.39-111.63-.79-167.44-1.18-55.53-.39-111.06-.78-166.59-1.17-31.32-.22-62.65-.44-93.97-.66-1.61-.01-1.61,2.49,0,2.5,55.81.39,111.63.79,167.44,1.18l166.59,1.17c31.32.22,62.65.44,93.97.66,1.61.01,1.61-2.49,0-2.5h0Z"/>
  <path class="cls-1" d="m8.71,759.1c.08-16.62-2.23-33.11-4.06-49.59-1.84-16.58-2.88-33.1-1.21-49.74s5.17-32.65,7.99-48.93c2.59-14.92,4.59-30,4.14-45.18-.42-14.35-3.02-28.77-9.26-41.78-.79-1.65-1.65-3.28-2.55-4.87-.79-1.4-2.95-.14-2.16,1.26,7.15,12.61,10.45,26.94,11.3,41.33.88,14.92-.75,29.82-3.19,44.52-2.67,16.14-6.18,32.14-8.18,48.38-1,8.14-1.59,16.32-1.53,24.52s.69,16.48,1.52,24.68c1.67,16.43,4.17,32.8,4.62,49.32.05,2.02.07,4.04.06,6.07,0,1.61,2.49,1.61,2.5,0h0Z"/>
  <path class="cls-1" d="m9.02,519.38c-5.36-18.82-6.44-38.5-5.39-57.96s4.39-39.81,7.54-59.58,6.17-39.81,6.58-59.95-2.1-39.7-4.78-59.39c-2.68-19.71-5.53-39.48-5.69-59.41-.02-2.52,0-5.05.08-7.57.04-1.61-2.46-1.61-2.5,0-.54,19.86,1.9,39.61,4.56,59.25,2.7,19.92,5.64,39.89,5.87,60.03s-2.49,40.67-5.64,60.79c-3.08,19.69-6.55,39.35-8.08,59.24s-1.15,39.03,3.19,58.03c.55,2.41,1.17,4.81,1.85,7.19.44,1.54,2.85.89,2.41-.66h0Z"/>
  <path class="cls-1" d="m94.05,356.73c3.03,9.02,6.42,19.36,3.09,28.77-3.14,8.88-12.08,13.65-19.28,18.85-14.74,10.63-27.69,23.59-38.55,38.14-10.86,14.55-19.55,30.68-25.87,47.69-.36.96-.92,2.03-1.1,3.04-.16.91.39,2.01.8,2.81.85,1.68,2.2,3.03,3.73,4.1,3.42,2.4,7.6,3.13,11.68,3.42,5,.35,10.21.24,14.6,3.05,3.73,2.39,6.33,6.24,8.13,10.22,7.64,16.91,2.58,38.32,15.81,52.96,1.4,1.55,2.99,2.9,4.71,4.08.91.62,2.14-.41,1.84-1.41-1.42-4.65-3.13-9.94-1.49-14.76,1.19-3.51,4.89-7.04,8.86-6.06,2.65.65,4.2,2.97,5.31,5.29,1.26,2.62,2.08,5.43,3.27,8.08,1.27,2.85,3.07,5.56,5.94,6.98.9.45,1.78-.11,1.88-1.08.88-8.47,9.14-15.11,17.46-15.25,8.99-.15,15.1,7.71,21.11,13.24,3.49,3.21,7.37,6.1,12.05,7.25.83.2,1.53-.39,1.58-1.21,1.3-20.03,2.93-42.33,17.36-57.8,3.44-3.69,7.48-6.54,11.89-8.98s9.18-4.67,13.4-7.63c7.4-5.17,13.39-12.15,17.84-19.97,10.4-18.28,11.83-39.94,10.05-60.49s-6.23-39.44-13.31-58.06c-7.04-18.52-16.57-36.1-28.37-52.02-1.43-1.93-2.89-3.83-4.38-5.71-1-1.26-2.76.52-1.77,1.77,12.27,15.52,22.37,32.8,29.91,51.09,7.52,18.25,12.59,37.55,14.84,57.16,2.36,20.56,2.15,42.54-7.25,61.47-4.02,8.09-9.58,15.47-16.72,21.06-7.87,6.16-17.71,9.14-25.18,15.88-15.11,13.61-18.76,34.77-20.24,54.05-.21,2.73-.39,5.46-.56,8.18l1.58-1.21c-9.14-2.26-14.51-11.19-21.81-16.43-3.72-2.67-8.07-4.4-12.7-4.13s-8.63,2.02-12.06,4.78c-4,3.22-6.68,7.82-7.21,12.95l1.88-1.08c-2.82-1.39-4.3-4.21-5.44-7.01-1.21-2.96-2.11-6.12-3.79-8.87s-4.24-4.8-7.53-4.98c-4.22-.22-8.02,3-9.72,6.66-2.59,5.57-.77,11.94.93,17.48l1.84-1.41c-7.15-4.9-10.62-13.33-12.46-21.51-2.17-9.67-2.21-19.73-5.14-29.24-2.61-8.47-7.83-16.92-17.06-18.94-4.74-1.04-9.68-.47-14.4-1.54-1.91-.43-3.77-1.12-5.42-2.18-1.47-.95-3.26-2.55-3.63-4.36-.17-.81.46-1.88.75-2.67.4-1.08.8-2.15,1.22-3.22.82-2.11,1.68-4.2,2.58-6.28,1.83-4.22,3.81-8.38,5.94-12.46,4.19-8.03,8.95-15.76,14.25-23.1,10.56-14.65,23.34-27.79,37.87-38.53,6.98-5.16,15.35-9.55,19.98-17.19,5.06-8.37,3.66-18.53,1.11-27.47-.66-2.33-1.41-4.63-2.18-6.92-.51-1.52-2.93-.87-2.41.66h0Z"/>
  <path class="cls-1" d="m176.3,303.98c-8.73-16.62-17.54-33.37-23.01-51.4-5.44-17.91-7.43-37.16-2.47-55.41,2.4-8.84,6.04-17.28,8.86-25.99s4.26-18.15,4.64-27.6c.69-17.53-.81-37.06,10.07-52.04,4.3-5.92,10.58-10.78,17.92-12.06,6.53-1.14,13.89.65,18.71,5.32,1.2,1.16,2.2,2.48,3.02,3.94s2.95.14,2.16-1.26c-3.48-6.18-10.06-9.76-16.97-10.61-7.46-.92-14.67,1.68-20.43,6.37-14.23,11.56-16.25,31-16.67,48.08-.25,10.01-.15,20.13-2.31,29.97-2.05,9.33-5.8,18.15-8.89,27.15s-5.13,18.22-5.43,27.79.92,19.32,3.13,28.7c4.49,18.99,13.17,36.66,22.14,53.88,1.12,2.15,2.25,4.3,3.37,6.44.75,1.43,2.91.16,2.16-1.26h0Z"/>
  <path class="cls-1" d="m228.83,85.98c1.05-8.57,12.79-10.21,19.01-6.57,8.63,5.05,12.35,15.75,16.26,24.36,9.85,21.67,19.84,43.28,29.52,65.02,9.13,20.5,17.77,41.96,19.47,64.56,1.62,21.59-4.86,41.74-12.52,61.62s-15.13,39.4-16.8,60.85c-1.83,23.59.42,47.55,1.45,71.14.52,11.98,1.05,23.96,1.57,35.94.41,9.44.79,18.9,2.01,28.28,2.17,16.6,7.15,33.93,20.14,45.38,6.91,6.1,15.55,9.76,22.56,15.71,7.66,6.5,10.85,15.39,12.2,25.11,1.32,9.49,1.35,19.13,3.78,28.46s6.57,18.02,12.21,25.7c2.77,3.77,5.87,7.26,9.27,10.47.76.71,2.18.24,2.13-.88-.19-5.11,1.07-18.14,8.98-16.76,4.05.71,6.34,5.02,8.89,7.82,2.91,3.19,6.52,5.76,10.47,7.51,6.46,2.87,13.63,3.39,20.24.71,5.86-2.38,10.38-7.05,11.03-13.52.16-1.6-2.34-1.59-2.5,0-.8,8.03-9.17,12.37-16.49,12.79-8.91.51-17.11-4.48-22.6-11.17-3.65-4.43-9.29-9.54-14.97-4.9-4.81,3.93-5.77,11.73-5.55,17.51l2.13-.88c-7.6-7.18-13.68-15.87-17.67-25.55-3.93-9.55-5.11-19.45-6.03-29.64-.83-9.12-1.87-18.68-6.82-26.62s-13.09-12.45-20.72-17.28c-8.15-5.16-14.81-11.35-19.44-19.91-4.38-8.1-6.73-17.16-8.19-26.21s-1.99-18.77-2.4-28.2c-.54-12.35-1.08-24.71-1.62-37.06s-1.09-24.63-1.61-36.94-.9-23.97-.04-35.92c.82-11.56,3.11-22.8,6.65-33.82,3.24-10.06,7.24-19.85,11.01-29.73,7.72-20.21,13.68-40.7,11.52-62.55s-10.73-43.43-19.8-63.76c-9.93-22.26-20.15-44.39-30.23-66.58-3.77-8.29-7.52-17.64-15.51-22.78-5.72-3.68-13.82-3.64-19.25.63-2.47,1.94-3.86,4.56-4.24,7.65-.2,1.59,2.31,1.58,2.5,0h0Z"/>
  <path class="cls-1" d="m402.66,372.3c7.19,4.11,7.93,13.45,9.36,20.72.83,4.21,2.06,8.32,4.54,11.87s5.45,6.24,8.27,9.28c3.13,3.38,6.14,7.38,6.54,12.13.14,1.59,2.64,1.61,2.5,0-.77-9.06-8.5-14.45-13.84-20.94-2.99-3.64-4.54-7.79-5.47-12.36-.87-4.24-1.35-8.59-2.84-12.68s-3.91-7.95-7.8-10.18c-1.4-.8-2.66,1.36-1.26,2.16h0Z"/>
  <path class="cls-1" d="m205.88,490.14c5.36,8.02,10.73,16.04,16.09,24.06l8.12,12.13c2.08,3.12,4.08,6.57,7.17,8.81,7.52,5.45,14.76-2.36,19.87-7.3,6.22-6.01,12.64-11.88,18.47-18.27s11.22-13.87,13.76-22.44c.46-1.55-1.95-2.21-2.41-.66-4.42,14.93-17.1,25.62-27.91,36.06-3.05,2.95-5.99,6.09-9.26,8.79-2.79,2.31-6.5,4.3-10.06,2.44-3.19-1.68-5.13-5.16-7.07-8.06-2.52-3.77-5.04-7.54-7.57-11.31-5.69-8.5-11.37-17-17.06-25.5-.89-1.33-3.06-.08-2.16,1.26h0Z"/>
  <path class="cls-1" d="m282.39,392c-10.87,12.16-21.12,24.86-30.69,38.06-2.71,3.74-5.36,7.52-7.97,11.33l1.96-.25c-8.37-9.38-15.9-19.46-22.53-30.14-.85-1.36-3.01-.11-2.16,1.26,6.73,10.86,14.41,21.12,22.92,30.65.57.64,1.54.37,1.96-.25,9.07-13.3,18.8-26.13,29.18-38.43,2.98-3.53,6.01-7.01,9.08-10.45,1.07-1.2-.69-2.97-1.77-1.77h0Z"/>
  <path class="cls-1" d="m211.4,391.9c11.6,1.07,23.21,2.14,34.81,3.21,9.75.9,20.67,2.03,28.94-4.35,3.76-2.9,6.41-6.99,6.82-11.78.13-1.6-2.37-1.59-2.5,0-.75,8.93-10.22,13.51-18.12,14.2-5.05.44-10.12-.11-15.14-.57-5.47-.5-10.94-1.01-16.41-1.51l-18.4-1.7c-1.6-.15-1.59,2.35,0,2.5h0Z"/>
  <path class="cls-1" d="m268.3,392.3l-1.33,2.67c-.15.3-.22.63-.13.96.08.29.3.6.57.75.29.15.64.23.96.13.3-.1.6-.28.75-.57l1.33-2.67c.15-.3.22-.63.13-.96-.08-.29-.3-.6-.57-.75-.29-.15-.64-.23-.96-.13-.3.1-.6.28-.75.57h0Z"/>
  <path class="cls-1" d="m243.4,397.63l.62,5.34c.04.34.11.63.37.88.22.22.57.38.88.37.61-.03,1.33-.55,1.25-1.25l-.62-5.34c-.04-.34-.11-.63-.37-.88-.22-.22-.57-.38-.88-.37-.61.03-1.33.55-1.25,1.25h0Z"/>
  <path class="cls-1" d="m224.85,396.29v4c0,.65.57,1.28,1.25,1.25s1.25-.55,1.25-1.25v-4c0-.65-.57-1.28-1.25-1.25s-1.25.55-1.25,1.25h0Z"/>
  <path class="cls-1" d="m265.56,397.95l.67,2c.1.31.29.58.57.75.27.16.66.22.96.13s.59-.29.75-.57.23-.64.13-.96l-.67-2c-.1-.31-.29-.58-.57-.75-.27-.16-.66-.22-.96-.13s-.59.29-.75.57-.23.64-.13.96h0Z"/>
  <path class="cls-1" d="m81.04,578.49c4.7,10.18,2.65,21.98-1.15,32.09-3.99,10.64-9.95,20.46-13.41,31.31-5.82,18.26-4.94,38.51,1.78,56.4,3.78,10.06,9.37,19.37,16.61,27.31,1.09,1.19,2.85-.58,1.77-1.77-12.97-14.2-20.42-33.04-21.41-52.2-.49-9.5.6-19.07,3.38-28.17,3.29-10.76,9.11-20.49,13.2-30.93,4.37-11.17,6.6-24.02,1.39-35.31-.67-1.46-2.83-.19-2.16,1.26h0Z"/>
  <path class="cls-1" d="m89.98,730.26c13.6,6.08,28.61,3.49,42.96,2.74s29.58,1,43.74,5.25c7.11,2.14,14.03,4.88,20.66,8.23s12.34,7.04,19.09,9.24,13.56,2.01,20.08-.67,11.89-6.81,17.34-10.93c11.36-8.6,23.1-18.09,28.09-31.94.22-.61-.25-1.41-.87-1.54-9.24-1.96-17.89-6.28-25.01-12.5-3.55-3.1-6.71-6.64-9.35-10.54-2.01-2.99-4.34-7.41-2.9-11.1,2.09-5.39,8.61-1.19,11.53.88,3.93,2.77,7.98,4.96,12.55,6.48,9.3,3.08,19.17,3.71,28.65,6.05,18.93,4.66,33.07,18.7,50.49,26.61,4.14,1.88,8.73,3.81,13.29,4.3,4.08.44,7-1.96,7.72-5.9.64-3.48-.11-7.63,1.76-10.79s5.9-3.6,9.11-4.17c3.43-.61,7.09-1.21,9.82-3.57,3.52-3.05,3.7-8.05,3.97-12.36.75-12.04,1.5-24.08,2.25-36.12.19-3.01.37-6.02.56-9.03.1-1.61-2.4-1.6-2.5,0-.76,12.24-1.52,24.48-2.29,36.72-.19,3.11-.39,6.22-.58,9.33-.15,2.37-.27,4.87-1.26,7.08-1.7,3.81-5.82,4.67-9.54,5.34-3.4.61-7.14,1.06-9.88,3.37-2.92,2.47-3.28,6.3-3.5,9.87-.1,1.74-.11,3.6-.75,5.25-.88,2.28-3.06,2.78-5.32,2.4-4.75-.8-9.43-2.78-13.72-4.89-8.71-4.27-16.61-9.97-24.85-15.05-8.31-5.12-16.92-9.27-26.5-11.36-9.64-2.11-19.71-2.8-28.95-6.47-2.26-.9-4.45-2.01-6.49-3.33s-4.08-2.99-6.31-4.2c-3.6-1.95-8.38-2.49-10.94,1.39-2.1,3.18-1.12,7.53.29,10.76,1.77,4.06,4.84,7.73,7.85,10.93,6.42,6.85,14.53,12.09,23.4,15.16,2.2.76,4.45,1.38,6.74,1.86l-.87-1.54c-4.37,12.14-14.51,20.9-24.46,28.55-5.21,4-10.45,8.16-16.3,11.2-6.29,3.26-13.04,4.44-19.95,2.56-6.79-1.85-12.82-5.68-19.01-8.89s-12.7-5.94-19.35-8.12c-13.46-4.41-27.67-6.63-41.83-6.5-15.61.15-32.53,4.42-47.38-2.22-1.46-.65-2.73,1.5-1.26,2.16h0Z"/>
  <path class="cls-1" d="m389.86,680.83c12.15-3.89,28.42-8.55,38.53,2.32,1.1,1.18,2.86-.59,1.77-1.77-4.56-4.9-11.19-7.17-17.76-7.47-7.96-.37-15.72,2.11-23.2,4.51-1.53.49-.87,2.9.66,2.41h0Z"/>
  <path class="cls-1" d="m368.85,715.58c8.68-.99,17.5,1.23,24.71,6.15,7.25,4.95,12.26,12.64,14.25,21.15,1.11,4.75,1.26,9.72.38,14.52-.29,1.57,2.12,2.25,2.41.66,1.69-9.18-.03-18.82-4.81-26.84-4.75-7.99-12.45-13.86-21.3-16.63-5.04-1.58-10.4-2.11-15.64-1.51-1.58.18-1.6,2.68,0,2.5h0Z"/>
  <path class="cls-1" d="m371.54,720.64c8.05,1.06,15.59,5.2,20.86,11.37,5.54,6.49,8.25,15.13,7.72,23.61-.1,1.61,2.4,1.6,2.5,0,.89-14.26-7.07-28.02-19.97-34.21-3.52-1.69-7.23-2.76-11.1-3.27-1.59-.21-1.57,2.29,0,2.5h0Z"/>
  <path class="cls-1" d="m56.29,755.87c7.67-11.82,18.72-21.2,31.57-26.96,1.47-.66.2-2.81-1.26-2.16-13.24,5.93-24.57,15.7-32.47,27.85-.88,1.35,1.28,2.61,2.16,1.26h0Z"/>
  <path class="cls-1" d="m64.78,662.47c-13.2-10.02-29.7-15.48-46.26-15.57-4.74-.03-9.47.41-14.14,1.27-1.58.29-.91,2.7.66,2.41,15.82-2.89,32.53-.39,46.89,6.82,4.08,2.05,7.95,4.47,11.58,7.23,1.28.97,2.53-1.2,1.26-2.16h0Z"/>
  <path class="cls-1" d="m38,505.38c-3.6,13.23-3.16,27.5,1.27,40.49,2.22,6.52,5.54,12.46,9.19,18.27s7.75,11.91,10.08,18.59c2.46,7.02,3.26,15.03-.25,21.84-.74,1.43,1.42,2.69,2.16,1.26,6.59-12.76.12-26.94-6.75-38.04-3.74-6.05-7.76-11.97-10.5-18.56s-4.31-13.19-4.88-20.08c-.64-7.77.05-15.59,2.09-23.11.42-1.55-1.99-2.22-2.41-.66h0Z"/>
  <path class="cls-1" d="m25.05,509.7c-7.78,14.96-4.98,33.89,5.36,46.91,2.57,3.24,5.65,6.08,9.1,8.37,3.62,2.4,7.77,3.92,11.3,6.45,1.67,1.2,3.21,2.72,4.04,4.63,1.15,2.63.7,5.52-.08,8.17s-1.95,5.44-2.81,8.2-1.56,5.54-2.12,8.36c-2.53,12.71-2.11,25.93,1.25,38.44.42,1.55,2.83.89,2.41-.66-2.96-11.04-3.61-22.69-1.81-33.98.9-5.63,2.44-11.07,4.38-16.42,1.74-4.79,3.2-10.17.15-14.77-2.36-3.56-6.33-5.6-10.02-7.5s-7.23-4.03-10.29-6.94c-5.96-5.67-9.99-13.2-11.8-21.2-2.03-8.95-1.17-18.58,3.09-26.77.74-1.43-1.41-2.69-2.16-1.26h0Z"/>
  <path class="cls-1" d="m14.22,567.61c7.43,7.21,16.28,16.11,15.5,27.33-.42,6.05-3.47,11.55-4.97,17.34-1.36,5.22-1.46,10.71-.43,16,1.16,5.93,3.8,11.48,7.64,16.15,1.02,1.24,2.78-.53,1.77-1.77-7.03-8.55-9.33-20.39-6.21-30.98,1.68-5.7,4.45-11.15,4.74-17.18.25-5.28-1.57-10.39-4.33-14.82-3.23-5.2-7.57-9.61-11.93-13.84-1.16-1.12-2.93.65-1.77,1.77h0Z"/>
  <path class="cls-1" d="m394.78,660.53c4.64-.23,9.16-1.65,13.06-4.18,1.35-.87.09-3.04-1.26-2.16-3.53,2.28-7.59,3.63-11.8,3.83-1.6.08-1.61,2.58,0,2.5h0Z"/>
  <path class="cls-1" d="m399.69,671.96c6.46-2.41,12.91-4.82,19.37-7.23,1.49-.56.85-2.98-.66-2.41-6.46,2.41-12.91,4.82-19.37,7.23-1.49.56-.85,2.98.66,2.41h0Z"/>
  <path class="cls-1" d="m399.86,658.37c11.68,2.21,24.04-2.9,30.72-12.73.91-1.33-1.26-2.59-2.16-1.26-6.01,8.85-17.39,13.58-27.9,11.59-1.57-.3-2.25,2.11-.66,2.41h0Z"/>
  <path class="cls-1" d="m411.18,666.92c3.71-5.23,8.32-9.84,13.55-13.55.55-.39.81-1.09.45-1.71-.32-.54-1.16-.84-1.71-.45-5.61,3.97-10.48,8.84-14.45,14.45-.39.55-.1,1.39.45,1.71.63.37,1.32.1,1.71-.45h0Z"/>
  <path class="cls-1" d="m173.4,513.03c8.85,26.05,22.57,50.36,40.31,71.4,2.2,2.61,4.46,5.16,6.77,7.66,2.19,2.36,4.46,5.02,7.6,6.1,3.35,1.14,6.63-.37,9.51-2.02s5.54-3.3,8.24-5.06c10.87-7.13,20.9-15.54,29.83-24.98,10.04-10.62,18.7-22.54,25.66-35.39.77-1.42-1.39-2.68-2.16-1.26-11.99,22.15-29.07,41.48-49.6,56.07-2.57,1.83-5.2,3.58-7.87,5.26s-5.61,3.78-8.67,4.84c-3.45,1.2-6.1-.51-8.49-2.91s-4.62-4.94-6.84-7.48c-8.7-9.99-16.46-20.79-23.19-32.2-7.6-12.88-13.87-26.52-18.69-40.68-.51-1.51-2.93-.86-2.41.66h0Z"/>
  <path class="cls-1" d="m287.75,517.6l.35,6.43.17,3.22c.04.75.16,1.58-.02,2.33-.13.53-.28.79-.79.45-.68-.45-1.15-1.34-1.61-1.99-1.25-1.77-2.49-3.53-3.74-5.3l-.45,1.71c5.62-2.56,12.64-1.19,16.98,3.15l.55-2.09c-3.05.43-5.54,2.28-8.1,3.84-2.28,1.39-5.63,3.1-8.13,1.27-.82-.6-1.61-1.63-1.52-2.7.09-1.15,1.11-1.86,2.08-2.29,1.53-.68,5.79-1.99,5.93.78.18,3.35-4.12,3.89-6.55,4.13-1.59.16-1.6,2.66,0,2.5,3.52-.35,7.85-1.14,8.87-5.14.39-1.53.15-3.26-1-4.42-1.39-1.39-3.42-1.39-5.22-1.05-3.24.61-7.29,2.55-6.52,6.53.32,1.65,1.49,3.07,2.89,3.95,1.64,1.03,3.61,1.14,5.46.75,4.6-.96,7.8-5.1,12.47-5.76.97-.14,1.15-1.49.55-2.09-5.19-5.19-13.36-6.57-20.01-3.54-.58.26-.81,1.2-.45,1.71,1.55,2.19,3.04,4.42,4.65,6.57,1.16,1.55,3.33,3.1,5.11,1.4,1.57-1.5,1.09-4.12.98-6.05l-.45-8.32c-.09-1.6-2.59-1.61-2.5,0h0Z"/>
  <path class="cls-1" d="m280.09,524.98c-8.94.24-17.7-4.27-22.62-11.75-.88-1.34-3.05-.09-2.16,1.26,5.4,8.2,14.94,13.25,24.78,12.99,1.61-.04,1.61-2.54,0-2.5h0Z"/>
  <path class="cls-1" d="m278.73,533.33c3.82,18.29-5.4,36.01-8.03,53.8-.67,4.53-.99,9.12-.6,13.69.44,5.16,1.76,10.19,2.5,15.31,1.42,9.74-.56,19.42-2.42,28.95-2.02,10.36-3.92,21.08-1.11,31.48.42,1.55,2.83.89,2.41-.66-5.11-18.87,5.47-37.61,3.98-56.61-.41-5.24-1.75-10.34-2.52-15.53-.68-4.66-.64-9.37-.09-14.04,1.08-9.19,3.96-18.06,6.2-27,2.46-9.82,4.19-19.99,2.09-30.05-.33-1.57-2.74-.91-2.41.66h0Z"/>
  <path class="cls-1" d="m182.1,311.6c17.41,15.54,42.02,21.89,64.88,17.69s42.11-19.68,52.45-40.31c5.76-11.51,8.72-24.41,8.06-37.29-.08-1.6-2.58-1.61-2.5,0,1.14,22.23-8.73,44.36-25.35,59.03-16.95,14.96-40.34,20.34-62.33,15.72-12.34-2.59-24.01-8.2-33.44-16.62-1.2-1.07-2.97.69-1.77,1.77h0Z"/>
  <path class="cls-1" d="m310.45,252.81c-4.18-10.96,4.77-20.67,11.84-27.85,1.13-1.15-.64-2.92-1.77-1.77-7.68,7.82-17,18.44-12.48,30.29.57,1.49,2.99.84,2.41-.66h0Z"/>
  <path class="cls-1" d="m13.43,425.51c6.21.43,12.43.85,18.64,1.28l-.33-2.46c-6.41,1.21-13.05-.46-18.25-4.37v2.16c2.34-1.42,4.9-2.05,7.63-1.92v-2.5c-2.1,0-4.2-.01-6.3-.02-1.62,0-1.59,2.4,0,2.5,7.68.47,15.36.94,23.04,1.41v-2.5c-8.98-.13-17.96-.27-26.94-.4v2.5c1.72-.11,3.45-.22,5.17-.33,1.6-.1,1.61-2.6,0-2.5-1.72.11-3.45.22-5.17.33-1.59.1-1.62,2.48,0,2.5,8.98.13,17.96.27,26.94.4,1.62.02,1.59-2.4,0-2.5-7.68-.47-15.36-.94-23.04-1.41v2.5c2.1,0,4.2.01,6.3.02,1.62,0,1.6-2.42,0-2.5-3.14-.16-6.2.63-8.89,2.26-.87.53-.73,1.61,0,2.16,5.74,4.32,13.13,5.94,20.17,4.62,1.46-.27,1-2.36-.33-2.46-6.21-.43-12.43-.85-18.64-1.28-1.61-.11-1.6,2.39,0,2.5h0Z"/>
  <path class="cls-1" d="m20.06,330.22c4.15-4.14,10.34-5.98,16.05-4.46,4.99,1.33,10.94,5.74,11.4,11.32.1,1.17-.11,2.37-.94,3.25-.92.98-2.32,1.42-3.41,2.17-2.32,1.6-2.99,4.21-1.91,6.8,1.14,2.74,3.81,4.31,5.59,6.58s2.94,5.06,3.58,7.89c1.71,7.55-.36,15.27-2.27,22.57-.41,1.56,2,2.22,2.41.66,1.86-7.09,3.72-14.39,2.66-21.76-.45-3.14-1.44-6.24-3.09-8.97-.73-1.2-1.59-2.33-2.56-3.34-1.23-1.28-2.77-2.37-3.69-3.91-.72-1.22-1.06-2.83.03-3.94,1.01-1.03,2.54-1.47,3.68-2.34,2.33-1.77,2.81-4.69,2.14-7.41-1.41-5.73-6.96-10.18-12.41-11.82-6.69-2.01-14.11.05-19.03,4.95-1.14,1.14.63,2.91,1.77,1.77h0Z"/>
  <path class="cls-1" d="m52.68,349.05c.48-5.34.95-10.68,1.43-16.02.17-1.95.09-4.76,2.33-5.52,1.03-.35,2.17-.32,3.24-.36,1.41-.05,2.82-.1,4.23-.13,4.6-.12,9.5-.59,14.05.28,3.78.72,7.16,2.71,8.22,6.61.96,3.52-.08,7.76-3.12,9.97-1.29.94-.04,3.11,1.26,2.16,3.31-2.4,5-6.44,4.66-10.5-.37-4.29-2.82-7.81-6.78-9.55-4.89-2.15-10.61-1.64-15.81-1.53-2.98.06-6.03-.01-8.99.33-2.39.27-4.29,1.42-5.11,3.76-.47,1.35-.53,2.82-.66,4.23l-.48,5.42-.97,10.85c-.14,1.6,2.36,1.59,2.5,0h0Z"/>
  <path class="cls-1" d="m393.55,332.03c-.72-1.24-.34-2.68.49-3.77,1.09-1.43,2.83-1.99,4.57-2.12,1.87-.14,3.75.12,5.61.34,2.22.26,4.44.52,6.66.78,3.46.4,7.38.4,10.62,1.81,1.21.53,2.36,1.34,2.81,2.63.63,1.81-.24,3.92-.45,5.74-.34,2.9,1.91,7.58,5.52,6.07,1.46-.61.82-3.03-.66-2.41-1.65.69-2.48-1.75-2.42-3.02.11-2.05.93-3.99.63-6.07-.49-3.42-3.58-5.2-6.67-5.98-4.07-1.02-8.43-1.17-12.59-1.66s-8.78-1.61-12.72.1c-3.26,1.42-5.48,5.5-3.56,8.81.81,1.39,2.97.13,2.16-1.26h0Z"/>
  <path class="cls-1" d="m7.29,218.9c2.17-20.49,1.89-41.13,1.85-61.71-.04-20.43.09-41.01,3.29-61.24,1.77-11.21,4.52-22.27,8.55-32.89.57-1.51-1.84-2.16-2.41-.66-7.23,19.04-10.17,39.32-11.27,59.57-1.12,20.64-.44,41.32-.7,61.97-.15,11.67-.59,23.35-1.82,34.96-.17,1.6,2.33,1.59,2.5,0h0Z"/>
</svg>